<svg width="51" height="51" viewBox="0 0 51 51" fill="none" xmlns="http://www.w3.org/2000/svg">
<rect x="0.0252686" width="50.6498" height="50.6498" rx="5" fill="#E44949" fill-opacity="0.64"/>
<path d="M19.4393 12.3672H19.119C19.2952 12.3672 19.4393 12.223 19.4393 12.0469V12.3672H31.6112V12.0469C31.6112 12.223 31.7553 12.3672 31.9315 12.3672H31.6112V15.25H34.494V12.0469C34.494 10.6335 33.3449 9.48438 31.9315 9.48438H19.119C17.7056 9.48438 16.5565 10.6335 16.5565 12.0469V15.25H19.4393V12.3672ZM39.619 15.25H11.4315C10.7228 15.25 10.1503 15.8226 10.1503 16.5312V17.8125C10.1503 17.9887 10.2944 18.1328 10.4706 18.1328H12.8889L13.8779 39.0732C13.942 40.4386 15.0711 41.5156 16.4364 41.5156H34.6141C35.9835 41.5156 37.1086 40.4426 37.1726 39.0732L38.1616 18.1328H40.58C40.7561 18.1328 40.9003 17.9887 40.9003 17.8125V16.5312C40.9003 15.8226 40.3277 15.25 39.619 15.25ZM34.3058 38.6328H16.7447L15.7758 18.1328H35.2748L34.3058 38.6328Z" fill="black"/>
</svg>
