<svg width="102" height="98" viewBox="0 0 102 98" fill="none" xmlns="http://www.w3.org/2000/svg">
<g filter="url(#filter0_d_7:50)">
<path fill-rule="evenodd" clip-rule="evenodd" d="M52.4062 21.1875C45.1874 21.1875 38.2642 24.0552 33.1597 29.1597C28.0552 34.2642 25.1875 41.1874 25.1875 48.4062C25.1875 55.6251 28.0552 62.5483 33.1597 67.6528C38.2642 72.7573 45.1874 75.625 52.4062 75.625C59.6251 75.625 66.5483 72.7573 71.6528 67.6528C76.7573 62.5483 79.625 55.6251 79.625 48.4062C79.625 41.1874 76.7573 34.2642 71.6528 29.1597C66.5483 24.0552 59.6251 21.1875 52.4062 21.1875ZM52.4062 71.4375C46.298 71.4375 40.4399 69.011 36.1207 64.6918C31.8015 60.3726 29.375 54.5145 29.375 48.4062C29.375 42.298 31.8015 36.4399 36.1207 32.1207C40.4399 27.8015 46.298 25.375 52.4062 25.375C58.5145 25.375 64.3726 27.8015 68.6918 32.1207C73.011 36.4399 75.4375 42.298 75.4375 48.4062C75.4375 54.5145 73.011 60.3726 68.6918 64.6918C64.3726 69.011 58.5145 71.4375 52.4062 71.4375ZM58.8969 36.1788C58.1734 35.4254 57.3044 34.8271 56.3425 34.42C55.1323 33.9355 53.8348 33.7073 52.5319 33.75C51.2673 33.727 50.0119 33.9695 48.8469 34.4619C47.8461 34.8806 46.9625 35.5255 46.2506 36.3462C45.5572 37.1005 45.0167 37.9822 44.6594 38.9425C44.3271 39.9179 44.1162 40.9305 44.0312 41.9575H49.1819C49.2056 41.2929 49.4173 40.6486 49.7923 40.0994C50.1673 39.5502 50.6904 39.1186 51.3008 38.8546C51.7053 38.6952 52.1396 38.6252 52.5737 38.6494C52.9483 38.5898 53.3299 38.5898 53.7044 38.6494C54.0484 38.7795 54.362 38.9791 54.6256 39.2356C54.9165 39.4874 55.1458 39.8025 55.2956 40.1569C55.4672 40.5532 55.5528 40.9813 55.5469 41.4131C55.5469 42.1376 55.3919 42.8494 55.0863 43.5069C54.7821 44.189 54.4029 44.835 53.9556 45.4331L52.49 47.1919C51.9875 47.7362 51.485 48.3225 51.0244 48.9087C50.5777 49.4923 50.1985 50.1244 49.8938 50.7931C49.6032 51.4522 49.4603 52.1668 49.475 52.8869V55.6506H54.5V53.5987C54.5142 52.9846 54.6719 52.3823 54.9606 51.84C55.3048 51.2372 55.6969 50.663 56.1331 50.1231L57.6406 48.2806C58.1894 47.6466 58.6931 46.975 59.1481 46.2706C59.6294 45.5524 60.023 44.7792 60.3206 43.9675C60.626 43.107 60.7818 42.2006 60.7812 41.2875C60.7887 40.3362 60.6474 39.3896 60.3625 38.4819C60.0463 37.6172 59.5462 36.8314 58.8969 36.1788ZM49.475 58.1631H54.3744V63.0625H49.475V58.1631Z" fill="black"/>
</g>
<defs>
<filter id="filter0_d_7:50" x="0" y="0" width="109" height="109" filterUnits="userSpaceOnUse" color-interpolation-filters="sRGB">
<feFlood flood-opacity="0" result="BackgroundImageFix"/>
<feColorMatrix in="SourceAlpha" type="matrix" values="0 0 0 0 0 0 0 0 0 0 0 0 0 0 0 0 0 0 127 0" result="hardAlpha"/>
<feOffset dy="4"/>
<feGaussianBlur stdDeviation="10.5"/>
<feComposite in2="hardAlpha" operator="out"/>
<feColorMatrix type="matrix" values="0 0 0 0 0 0 0 0 0 0 0 0 0 0 0 0 0 0 0.25 0"/>
<feBlend mode="normal" in2="BackgroundImageFix" result="effect1_dropShadow_7:50"/>
<feBlend mode="normal" in="SourceGraphic" in2="effect1_dropShadow_7:50" result="shape"/>
</filter>
</defs>
</svg>
